<?xml version="1.0" encoding="UTF-8"?><svg xmlns="http://www.w3.org/2000/svg" width="640" height="120" viewBox="0 0 640 120"><defs><style>.i,.j{fill:#81dcf1;}.k{fill:#fff;}.l{fill:#e6f5ff;}.m,.n{fill:#ffedc4;}.o{fill:#fafafa;}.j,.n,.p,.q,.r,.s,.t{opacity:.5;}.j,.p,.t{mix-blend-mode:screen;}.u{isolation:isolate;}.v{fill:#e1f6fa;}.w,.s{fill:#f97572;}.x{fill:none;stroke:#6690ff;stroke-miterlimit:10;stroke-width:2px;}.n,.q,.r,.s{mix-blend-mode:multiply;}.y,.r{fill:#c4d8ff;}.z{fill:#fff5de;}.p,.aa{fill:#172752;}.q{fill:#8cd0ff;}.ab{fill:#e3ecff;}</style></defs><g class="u"><g id="a"><g><g id="b"><g><path class="y" d="m145.4,94.84c-7.46-6.12,13.79-30.32,35.61-51.74,19.22-18.88,38.88-35.6,39.77-35.91,1.56-.57,20.96,2.64,27.73,3.79.52.09.54.82.03.94l-21.17,4.95c-.69.16-1.33.51-1.82,1.02-1.31,1.32-4.24,4.24-8.2,8.19-15.97,15.94-48.58,48.67-57.43,61.1-9.06,12.73-14.52,7.67-14.52,7.67Z"/><path class="r" d="m145.4,94.84c-7.46-6.12,13.79-30.32,35.61-51.74.57.64,1.39,1.07,2.25,1.26,1.24.26,2.53.08,3.76-.18,7.74-1.6,14.56-6.07,20.84-10.85,3.18-2.4,6.29-4.92,9.48-7.27-15.97,15.94-48.58,48.67-57.43,61.1-9.06,12.73-14.52,7.67-14.52,7.67Z"/></g><g><path class="l" d="m144.84,94.26c-5.17-6.06,11.09-20.8,31.13-35.46,2.73-1.99,5.52-3.99,8.34-5.97,1.73-1.21,3.48-2.41,5.22-3.59,1.86-1.27,3.71-2.52,5.56-3.74,4.83-3.22,9.56-6.28,13.98-9.08,3.22-2.04,6.27-3.94,9.08-5.65,9.33-5.73,15.85-9.44,16.34-9.52,1.64-.28,20.17,6.3,26.64,8.61.48.18.38.9-.15.94l-21.71,1.14c-.72.04-1.4.28-1.98.69-1.04.74-2.96,2.06-5.54,3.84-2.35,1.63-5.23,3.63-8.49,5.91-3.98,2.78-8.53,5.96-13.34,9.34-1.77,1.25-3.57,2.53-5.4,3.82-1.69,1.21-3.39,2.41-5.09,3.64-2.78,1.98-5.55,3.99-8.29,5.99-13.09,9.53-25.23,18.78-30.66,24.1-11.17,10.94-15.65,4.99-15.65,4.99Z"/><g class="t"><path class="l" d="m223.26,42.38l-14.19-5.96c3.22-2.04,6.27-3.94,9.08-5.65l13.61,5.7c-2.35,1.63-5.23,3.63-8.49,5.91Z"/><path class="l" d="m191.15,65.16l-15.18-6.36c2.73-1.99,5.52-3.99,8.34-5.97l15.13,6.34c-2.78,1.98-5.55,3.99-8.29,5.99Z"/><path class="l" d="m204.53,55.53l-15-6.29c1.86-1.27,3.71-2.52,5.56-3.74l14.84,6.21c-1.77,1.25-3.57,2.53-5.4,3.82Z"/></g></g></g><g id="c"><path class="l" d="m359.07,62.41c0-.12-1.4-.15-3.64-.1-2.1.04-4.19-.57-5.84-1.87-.3-.23-.58-.48-.84-.75-1.49-1.47-2.34-3.47-2.53-5.54-.21-2.22-.4-3.59-.52-3.58-.12,0-.15,1.39-.11,3.62.04,2.08-.58,4.16-1.89,5.79-.24.29-.49.57-.75.84-1.49,1.48-3.5,2.32-5.59,2.52-2.24.21-3.62.4-3.61.52,0,.12,1.4.15,3.64.1,2.1-.04,4.19.57,5.84,1.87.3.23.58.48.84.75,1.49,1.47,2.34,3.47,2.53,5.54.21,2.22.4,3.59.52,3.58.12,0,.15-1.39.11-3.62-.04-2.08.58-4.16,1.89-5.79.24-.29.49-.57.75-.84,1.49-1.48,3.5-2.32,5.59-2.52,2.24-.21,3.62-.4,3.61-.52Z"/><path class="l" d="m253.95,75.73c0-.12-1.4-.15-3.64-.1-2.1.04-4.19-.57-5.84-1.87-.3-.23-.58-.48-.84-.75-1.49-1.47-2.34-3.47-2.53-5.54-.21-2.22-.4-3.59-.52-3.58-.12,0-.15,1.39-.11,3.62.04,2.08-.58,4.16-1.89,5.79-.24.29-.49.57-.75.84-1.49,1.48-3.5,2.32-5.59,2.52-2.24.21-3.62.4-3.61.52,0,.12,1.4.15,3.64.1,2.1-.04,4.19.57,5.84,1.87.3.23.58.48.84.75,1.49,1.47,2.34,3.47,2.53,5.54.21,2.22.4,3.59.52,3.58.12,0,.15-1.39.11-3.62-.04-2.08.58-4.16,1.89-5.79.24-.29.49-.57.75-.84,1.49-1.48,3.5-2.32,5.59-2.52,2.24-.21,3.62-.4,3.61-.52Z"/><path class="l" d="m558.3,102.66c0-.12-1.4-.15-3.64-.1-2.1.04-4.19-.57-5.84-1.87-.3-.23-.58-.48-.84-.75-1.49-1.47-2.34-3.47-2.53-5.54-.21-2.22-.4-3.59-.52-3.58-.12,0-.15,1.39-.11,3.62.04,2.08-.58,4.16-1.89,5.79-.24.29-.49.57-.75.84-1.49,1.48-3.5,2.32-5.59,2.52-2.24.21-3.62.4-3.61.52,0,.12,1.4.15,3.64.1,2.1-.04,4.19.57,5.84,1.87.3.23.58.48.84.75,1.49,1.47,2.34,3.47,2.53,5.54.21,2.22.4,3.59.52,3.58.12,0,.15-1.39.11-3.62-.04-2.08.58-4.16,1.89-5.79.24-.29.49-.57.75-.84,1.49-1.48,3.5-2.32,5.59-2.52,2.24-.21,3.62-.4,3.61-.52Z"/><path class="l" d="m339.27,50.05c0-.09-.99-.11-2.59-.07-1.5.03-2.98-.4-4.15-1.33-.21-.17-.41-.34-.6-.53-1.06-1.05-1.66-2.47-1.8-3.94-.15-1.58-.28-2.55-.37-2.55-.09,0-.11.99-.08,2.57.03,1.48-.41,2.96-1.34,4.12-.17.21-.35.41-.54.6-1.06,1.05-2.49,1.65-3.98,1.79-1.59.15-2.57.28-2.57.37,0,.09.99.11,2.59.07,1.5-.03,2.98.4,4.15,1.33.21.17.41.34.6.53,1.06,1.05,1.66,2.47,1.8,3.94.15,1.58.28,2.55.37,2.55.09,0,.11-.99.08-2.57-.03-1.48.41-2.96,1.34-4.12.17-.21.35-.41.54-.6,1.06-1.05,2.49-1.65,3.98-1.79,1.59-.15,2.57-.28,2.57-.37Z"/><path class="l" d="m188.4,18.05c0-.09-.99-.11-2.59-.07-1.5.03-2.98-.4-4.15-1.33-.21-.17-.41-.34-.6-.53-1.06-1.05-1.66-2.47-1.8-3.94-.15-1.58-.28-2.55-.37-2.55-.09,0-.11.99-.08,2.57.03,1.48-.41,2.96-1.34,4.12-.17.21-.35.41-.54.6-1.06,1.05-2.49,1.65-3.98,1.79-1.59.15-2.57.28-2.57.37,0,.09.99.11,2.59.07,1.49-.03,2.98.4,4.15,1.33.21.17.41.34.6.53,1.06,1.05,1.66,2.47,1.8,3.94.15,1.58.28,2.55.37,2.55.09,0,.11-.99.08-2.57-.03-1.48.41-2.96,1.34-4.12.17-.21.35-.41.54-.6,1.06-1.05,2.49-1.65,3.98-1.79,1.59-.15,2.57-.28,2.57-.37Z"/><path class="l" d="m22.56,24.77c0-.09-.99-.11-2.59-.07-1.5.03-2.98-.4-4.15-1.33-.21-.17-.41-.34-.6-.53-1.06-1.05-1.66-2.47-1.8-3.94-.15-1.58-.28-2.55-.37-2.55-.09,0-.11.99-.08,2.57.03,1.48-.41,2.96-1.34,4.12-.17.21-.35.41-.54.6-1.06,1.05-2.49,1.65-3.98,1.79-1.59.15-2.57.28-2.57.37,0,.09.99.11,2.59.07,1.49-.03,2.98.4,4.15,1.33.21.17.41.34.6.53,1.06,1.05,1.66,2.47,1.8,3.94.15,1.58.28,2.55.37,2.55.09,0,.11-.99.08-2.57-.03-1.48.41-2.96,1.34-4.12.17-.21.35-.41.54-.6,1.06-1.05,2.49-1.65,3.98-1.79,1.59-.15,2.57-.28,2.57-.37Z"/><path class="l" d="m497.56,22.97c0-.09-.99-.11-2.59-.07-1.49.03-2.98-.4-4.15-1.33-.21-.17-.41-.34-.6-.53-1.06-1.05-1.66-2.47-1.8-3.94-.15-1.58-.28-2.55-.37-2.55-.09,0-.11.99-.08,2.57.03,1.48-.41,2.96-1.34,4.12-.17.21-.35.41-.54.6-1.06,1.05-2.49,1.65-3.98,1.79-1.59.15-2.57.28-2.57.37,0,.09.99.11,2.59.07,1.5-.03,2.98.4,4.15,1.33.21.17.41.34.6.53,1.06,1.05,1.66,2.47,1.8,3.94.15,1.58.28,2.55.37,2.55.09,0,.11-.99.08-2.57-.03-1.48.41-2.96,1.34-4.12.17-.21.35-.41.54-.6,1.06-1.05,2.49-1.65,3.98-1.79,1.59-.15,2.57-.28,2.57-.37Z"/><path class="l" d="m444.52,89.45c0-.09-.99-.11-2.59-.07-1.49.03-2.98-.4-4.15-1.33-.21-.17-.41-.34-.6-.53-1.06-1.05-1.66-2.47-1.8-3.94-.15-1.58-.28-2.55-.37-2.55-.09,0-.11.99-.08,2.57.03,1.48-.41,2.96-1.34,4.12-.17.21-.35.41-.54.6-1.06,1.05-2.49,1.65-3.98,1.79-1.59.15-2.57.28-2.57.37,0,.09.99.11,2.59.07,1.5-.03,2.98.4,4.15,1.33.21.17.41.34.6.53,1.06,1.05,1.66,2.47,1.8,3.94.15,1.58.28,2.55.37,2.55.09,0,.11-.99.08-2.57-.03-1.48.41-2.96,1.34-4.12.17-.21.35-.41.54-.6,1.06-1.05,2.49-1.65,3.98-1.79,1.59-.15,2.57-.28,2.57-.37Z"/><path class="l" d="m173.06,107.89c0-.09-.99-.11-2.59-.07-1.49.03-2.98-.4-4.15-1.33-.21-.17-.41-.34-.6-.53-1.06-1.05-1.66-2.47-1.8-3.94-.15-1.58-.28-2.55-.37-2.55-.09,0-.11.99-.08,2.57.03,1.48-.41,2.96-1.34,4.12-.17.21-.35.41-.54.6-1.06,1.05-2.49,1.65-3.98,1.79-1.59.15-2.57.28-2.57.37,0,.09.99.11,2.59.07,1.49-.03,2.98.4,4.15,1.33.21.17.41.34.6.53,1.06,1.05,1.66,2.47,1.8,3.94.15,1.58.28,2.55.37,2.55.09,0,.11-.99.08-2.57-.03-1.48.41-2.96,1.34-4.12.17-.21.35-.41.54-.6,1.06-1.05,2.49-1.65,3.98-1.79,1.59-.15,2.57-.28,2.57-.37Z"/><path class="l" d="m88.29,45.84c0-.05-.63-.07-1.64-.05-.95.02-1.89-.26-2.63-.84-.13-.1-.26-.22-.38-.34-.67-.66-1.05-1.56-1.14-2.49-.09-1-.18-1.61-.23-1.61-.05,0-.07.62-.05,1.63.02.94-.26,1.87-.85,2.61-.11.13-.22.26-.34.38-.67.66-1.57,1.05-2.51,1.13-1.01.09-1.63.18-1.62.23,0,.05.63.07,1.64.05.95-.02,1.89.26,2.63.84.13.1.26.22.38.34.67.66,1.05,1.56,1.14,2.49.09,1,.18,1.61.23,1.61.05,0,.07-.62.05-1.63-.02-.94.26-1.87.85-2.61.11-.13.22-.26.34-.38.67-.66,1.57-1.05,2.51-1.13,1.01-.09,1.63-.18,1.62-.23Z"/><path class="l" d="m133.19,63.96c0-.16-1.87-.2-4.87-.14-2.81.06-5.61-.76-7.8-2.49-.4-.31-.77-.65-1.13-1-1.99-1.97-3.13-4.63-3.39-7.41-.28-2.97-.53-4.8-.69-4.79-.16,0-.21,1.85-.14,4.83.06,2.79-.77,5.56-2.52,7.74-.31.39-.65.77-1.01,1.12-1.99,1.97-4.67,3.11-7.47,3.37-2.99.28-4.83.53-4.82.69,0,.16,1.87.2,4.87.14,2.81-.06,5.61.76,7.8,2.49.4.31.77.65,1.13,1,1.99,1.97,3.13,4.63,3.39,7.41.28,2.97.53,4.8.69,4.79.16,0,.21-1.85.14-4.83-.06-2.79.77-5.56,2.52-7.75.31-.39.65-.77,1.01-1.12,1.99-1.97,4.67-3.11,7.47-3.37,2.99-.28,4.83-.53,4.82-.69Z"/><path class="l" d="m627.86,61.8c0-.16-1.87-.2-4.87-.14-2.81.06-5.61-.76-7.8-2.49-.4-.31-.77-.65-1.13-1-1.99-1.97-3.13-4.63-3.39-7.41-.28-2.97-.53-4.8-.69-4.79-.16,0-.21,1.85-.14,4.83.06,2.79-.77,5.56-2.52,7.74-.31.39-.65.77-1.01,1.12-1.99,1.97-4.67,3.11-7.47,3.37-2.99.28-4.83.53-4.82.69,0,.16,1.87.2,4.87.14,2.81-.06,5.61.76,7.8,2.49.4.31.77.65,1.13,1,1.99,1.97,3.13,4.63,3.39,7.41.28,2.97.53,4.8.69,4.79.16,0,.21-1.85.14-4.83-.06-2.79.77-5.56,2.52-7.75.31-.39.65-.77,1.01-1.12,1.99-1.97,4.67-3.11,7.47-3.37,2.99-.28,4.83-.53,4.82-.69Z"/></g><g id="d"><g><g><polygon class="k" points="452.45 129.63 456.54 124.54 407.41 85.16 374.09 58.45 370.01 63.54 397.59 85.65 452.45 129.63"/><path class="q" d="m397.59,85.65c2.62.06,6.46.16,9.82-.49l-33.32-26.71-4.09,5.09,27.58,22.11Z"/></g><g><polygon class="i" points="492.32 166.94 501.62 155.34 444.33 109.42 442.84 109.34 437.2 109.04 433.36 114.33 435.03 121.01 476.02 153.87 492.32 166.94"/><path class="j" d="m492.32,166.94l9.3-11.6-57.29-45.93-1.49-.08c1.67,2.63,5.28,4.89,7.06,6.58,8.36,7.91,16.08,16.51,23.07,25.67,2.32,3.04,4.68,6.71,3.75,10.41-.16.64-.42,1.26-.71,1.86l16.31,13.07Z"/></g></g><g><circle class="k" cx="397.14" cy="42.89" r="35.56" transform="translate(-2.23 50.86) rotate(-7.31)"/><path class="v" d="m384.41,71.22c15.64,7.03,34.02.04,41.05-15.61,1.5-3.33,2.36-6.78,2.63-10.23.29-3.52-.04-7.04-.94-10.41-.39-1.5-.91-2.98-1.52-4.42-2.86-6.6-8-12.23-14.94-15.6-.27-.13-.55-.26-.83-.39-15.64-7.03-34.03-.05-41.06,15.59-.32.71-.61,1.44-.87,2.16-2.62,7.2-2.39,14.84.17,21.6.55,1.45,1.21,2.87,1.98,4.23,1.7,3.02,3.92,5.77,6.59,8.12,2.26,1.98,4.85,3.66,7.73,4.95Z"/><g class="t"><path class="o" d="m368.11,53.92l57.53-23.36c-2.86-6.6-8-12.23-14.94-15.6l-42.77,17.37c-2.62,7.2-2.39,14.84.17,21.6Z"/><path class="o" d="m376.69,66.27l51.42-20.88c.29-3.52-.04-7.04-.94-10.41l-57.07,23.17c1.7,3.02,3.92,5.77,6.59,8.12Z"/></g></g></g><g id="e"><g><path class="aa" d="m210.2,164.83h0c-1.82,2.72-5.5,3.46-8.22,1.64L24.44,48.09c-2.72-1.82-3.46-5.5-1.64-8.22h0c1.82-2.72,5.5-3.46,8.22-1.64l177.53,118.38c2.72,1.82,3.46,5.5,1.64,8.22Z"/><path class="p" d="m210.19,164.82c-1.82,2.72-5.5,3.46-8.22,1.65L24.44,48.09c-2.73-1.83-3.46-5.5-1.65-8.22.3-.44.65-.84,1.03-1.16.4,1.16,1.19,2.2,2.28,2.93l177.53,118.39c2.28,1.52,5.23,1.25,7.2-.49.62,1.7.45,3.67-.64,5.3Z"/></g><g><g><path class="k" d="m97.39,49.22c-.08.38-.18.76-.3,1.13-.28.85-.68,1.66-1.25,2.34-.82.97-2.06,1.66-3.34,1.59-.58-.03-1.1-.2-1.59-.47-1.4-.72-2.55-2.16-3.88-3.12-2.55-1.85-6-2.04-8.57-3.86-3.61-2.55-4.59-7.64-8.05-10.4-2.64-2.1-6.22-2.44-9.45-3.4-5.1-1.54-9.73-4.95-12.14-9.7-1.09-2.14-1.67-4.55-1.7-6.96-.01-1.19.11-2.4.38-3.57.11-.53.3-1.32.56-2.11.33-1.04.8-2.08,1.39-2.55.38-.3.81-.36,1.23-.26,1.04.24,2.1,1.4,2.55,2.19.84,1.45,1.1,3.15,1.71,4.71,1.99,5.11,7.38,8.09,12.68,9.53,5.31,1.42,10.9,1.73,16.05,3.64,4.32,1.6,8.28,4.35,10.9,8.15.95,1.36,1.7,2.85,2.23,4.42.97,2.8,1.22,5.82.58,8.71Z"/><path class="w" d="m90.89,53.27c0,.18,0,.36,0,.54-1.4-.72-2.55-2.16-3.88-3.12-2.55-1.85-6-2.04-8.57-3.86-3.61-2.55-4.59-7.64-8.05-10.4-2.64-2.1-6.22-2.44-9.45-3.4-5.1-1.54-9.73-4.95-12.14-9.7-1.63-3.21-2.13-7.02-1.32-10.53.11-.53.3-1.32.56-2.11.05.36.1.72.16,1.09.56,3.06,1.74,6,3.44,8.6.97,1.48,2.1,2.85,3.38,4.06,4.98,4.71,11.72,6.93,18,9.64,4.23,1.84,8.41,3.98,11.78,7.14,3.36,3.16,5.87,7.45,6.07,12.05Z"/><path class="i" d="m97.38,49.22c-.08.38-.18.76-.3,1.13-.42-.58-.72-1.29-.98-1.96-2.32-5.94-5.28-12.01-10.57-15.56-6.35-4.26-14.72-4.04-21.65-7.26-1.91-.89-3.69-2.06-5.29-3.45-2.87-2.5-5.13-5.71-6.55-9.24-.65-1.61-1.09-3.28-1.37-4.99,1.04.24,2.1,1.4,2.55,2.19.84,1.45,1.1,3.15,1.71,4.71,1.99,5.11,7.38,8.09,12.68,9.53,5.31,1.42,10.9,1.73,16.05,3.64,4.32,1.6,8.28,4.35,10.9,8.15,2.63,3.79,3.82,8.64,2.81,13.13Z"/><path class="s" d="m97.39,49.22c-.08.38-.18.76-.3,1.13-.28.85-.68,1.66-1.25,2.34-.82.97-2.06,1.66-3.34,1.59-.58-.03-1.1-.2-1.59-.47-1.4-.72-2.55-2.16-3.88-3.12-2.55-1.85-6-2.04-8.57-3.86-3.61-2.55-4.59-7.64-8.05-10.4-2.64-2.1-6.22-2.44-9.45-3.4-5.1-1.54-9.73-4.95-12.14-9.7-1.09-2.14-1.67-4.55-1.7-6.96,3.94,2.37,6.73,6.49,10.34,9.46,6.13,5.02,14.61,6.67,20.32,12.16,3.06,2.94,5.15,6.81,8.38,9.55,1.42,1.19,3.16,2.18,5.01,2.04,2.27-.17,4.13-2.06,4.93-4.2.58-1.55.72-3.21.71-4.87.97,2.8,1.22,5.82.58,8.71Z"/></g><g><path class="m" d="m89.42,53.51l-9.49,13.92c-.79,1.16-2.37,1.48-3.55.71l-3.32-2.15-1.95-1.27-1.2-.77-.83-.55-7.71-4.98-.84-.55-2.51-1.62-.84-.55-1.68-1.09-3.9-2.53-2.28-1.47-5.7-3.69-.84-.55-1.28-.83-5.72-3.69c-1.2-.77-1.5-2.4-.65-3.55l12.43-17.05c1.1-1.5,3.45-1.33,4.22.37,0,0,.01.02.01.04.56,1.26.72,2.7,1.44,3.88.05.09.11.17.17.24.7.98,1.75,1.67,2.88,2.12.09.04.2.07.29.11.23.09.47.15.71.22,1.12.31,2.28.46,3.43.65.52.09,1.03.17,1.55.27.93.18,1.85.4,2.75.68.77.25,1.52.53,2.26.89.67.33,1.33.71,1.94,1.17.73.53,1.39,1.14,1.94,1.85.23.28.44.57.64.88.13.22.26.45.37.68.44.9.7,1.88,1.01,2.84.12.41.26.81.41,1.2.27.7.6,1.35,1.09,1.94,1.59,1.91,4.24,2.35,6.62,3.21.32.12.65.23.96.38.04,0,.08.03.13.05.18.08.36.17.53.27.68.36,1.32.8,1.93,1.3,1.73,1.41,3.22,3.27,4.57,5.04.44.58.46,1.36.06,1.96Z"/><g><path class="n" d="m62.23,29.17l-12.93,21.46-7.82-5.06,11.91-19.76c.76,1.07,1.94,1.79,3.17,2.23,1.33.46,2.74.65,4.13.86.52.09,1.03.17,1.55.27Z"/><path class="n" d="m69.18,31.91l-13.7,22.71-3.9-2.53,13.4-22.25c.77.25,1.52.53,2.26.89.67.33,1.33.71,1.94,1.17Z"/><path class="n" d="m84.79,46.5l-11.74,19.49-1.95-1.27,11.77-19.51c.68.36,1.32.8,1.93,1.3Z"/></g><g><path class="z" d="m57.26,28.25l-13.66,18.69-.84-.55,13.5-18.47c.09.04.2.07.29.11.23.09.47.15.71.22Z"/><path class="z" d="m71.76,34.63c-4.68,7.16-9.27,14.38-13.75,21.62l-.84-.55c4.55-7.35,9.21-14.68,13.96-21.95.23.28.44.57.64.88Z"/><path class="z" d="m73.55,39.36c-4.25,6.24-8.32,12.61-12.19,19.05l-.84-.55c4.01-6.67,8.22-13.26,12.62-19.71.12.41.26.81.41,1.2Z"/><path class="z" d="m82.21,44.89c-4.42,6.13-8.53,12.51-12.31,19.06l-.83-.55c3.73-6.49,7.81-12.8,12.19-18.89.32.12.65.23.96.38Z"/></g></g></g></g><g id="f"><g><path class="l" d="m280.93,65.08c1.12.81,2.68.56,3.49-.57l7.39-10.25,7.91-11.01c3.47.78,7.06.77,10.48.03,2.02-.43,4.09-1.15,5.94-2.51.92-.68,1.76-1.52,2.4-2.54.66-1.01,1.05-2.12,1.28-3.23.42-2.25.11-4.51-.79-6.51-.88-1.98-2.27-3.62-3.82-4.94-3.17-2.65-6.97-3.92-10.56-5.02-.54-.16-1.1.14-1.26.67-.15.51.12,1.05.62,1.24,3.47,1.3,6.88,2.77,9.37,5.17,1.23,1.19,2.22,2.58,2.77,4.08.56,1.47.64,3.1.26,4.54-.39,1.45-1.22,2.56-2.48,3.34-1.24.8-2.82,1.28-4.49,1.51-2.66.39-5.38.25-7.91-.42-.68-.18-1.35-.4-2-.65h-.05c-1.06-.36-2.19.05-2.8.9l-10.6,14.73-5.7,7.93c-.8,1.12-.55,2.69.58,3.49Z"/><path class="q" d="m280.93,65.08c1.12.81,2.68.56,3.49-.57l7.39-10.25c-1.44.09-2.89,0-4.3-.26-.48-.09-.97-.2-1.45-.34l-5.7,7.93c-.8,1.12-.55,2.69.58,3.49Z"/></g><g><g><polygon class="i" points="200.39 160.88 207.73 166.54 212.88 159.86 277.77 75.74 286.98 63.8 279.65 58.16 270.39 70.15 253.78 91.69 200.39 160.88"/><path class="j" d="m212.88,159.86l64.89-84.12c-1.44-2.08-3.31-3.81-5.6-4.9-.58-.28-1.17-.5-1.77-.69l-16.61,21.54c.33.22.62.5.85.84,1.08,1.54.64,3.66.05,5.45-3.66,11.19-11.23,20.62-19.03,29.43-7.79,8.83-16.06,17.44-21.55,27.84-.74,1.39-1.36,3.12-1.23,4.6Z"/></g><rect class="aa" x="267.16" y="57.44" width="11.58" height="34.42" transform="translate(443.47 300.47) rotate(-142.35)"/></g></g><g id="g"><path class="x" d="m510.95-36.28c4.17,49.39,40.89,70.45,82.47,73.51,90.44,6.66,89.3,32.15,96.06,46.89"/><path class="x" d="m527.3-41.92c6.4,21.38,21.37,45.68,41.59,55.11,20.22,9.43,45.78,6.84,67.05,13.58,31.82,10.09,41.02,21.09,50.95,41.07"/><path class="x" d="m539.06,151.12c1.24-7.62,19.44-91.12,138.56-59.21"/><path class="x" d="m558.32,148.24c5.22-48.42,88.56-63.54,118.8-34.38"/><path class="x" d="m-20.65,54.75c23.97,8.22,48.37,16.66,68.66,31.85,29.55,22.13,47.64,56.85,56.64,92.66"/><path class="x" d="m-12.56,77.66c48.34,6.87,79.68,53.44,97.5,97.03"/><path class="x" d="m265.22,136.66c19.44-72.24,135.12-72.24,159.6-3.6"/><path class="x" d="m277.22,147.7c12.48-45.36,95.28-74.88,137.28-6.96"/></g><g id="h"><path class="y" d="m507.2,74.58l-7.8,14.77c-.78,1.48-1.19,3.12-1.17,4.79.04,3.9.44,10.97,2.67,12.7,3.13,2.42,13.7-5.27,15.02-7.09,1.33-1.82,9.16-17.56,9.16-17.56l-17.88-7.6Z"/><path class="ab" d="m503.46,81.65c5.37,4,12.05,6.22,18.75,6.22l1.18-2.29s.72,5.2-2.97,5.85c-3.27.58-12.62.32-16.83-5.89-.96-1.42-1.1-3.25-.4-4.82l.18-.41.63.32-.54,1.02Z"/><path class="ab" d="m500.05,91.11c5.17,3.53,11.36,5.47,17.62,5.47l1.24-2.25s.72,5.16-2.97,5.81c-3.27.58-12.62.32-16.83-5.89-.96-1.42-1.1-3.25-.4-4.82l.18-.41.6.14h0c-.29.7-.07,1.52.55,1.95Z"/><g><path class="l" d="m522.59,31.26c2.65-.56,5.31.95,7.33,2.75,2.02,1.8,3.78,3.98,6.18,5.24,2.23,1.16,4.81,1.41,7.17,2.29,2.36.87,4.68,2.74,4.78,5.25-4.8,1.8-9.77,2.16-14.88,1.63-2.75-.29-5.58-.99-7.63-2.84-1.74-1.57-2.73-3.83-3.18-6.14-.45-2.3.17-5.84.22-8.19Z"/><path class="k" d="m558.27,65.27c-1.78,6.32-5.46,11.55-10.54,15.29-1.77,1.3-3.7,2.41-5.77,3.33-.01,0-.02.01-.03.01-3.9,1.72-8.3,2.09-12.52,1.6-4.23-.5-8.31-1.84-12.26-3.43-7.12-2.86-14.27-6.95-17.92-13.69-2.05-3.79-2.84-8.18-2.68-12.48.13-3.67.94-7.28,2.1-10.77.19-.6.41-1.21.63-1.8,1.33-3.63,3.05-7.17,5.57-10.1,2.53-2.91,5.95-5.19,9.77-5.78,3.82-.59,8.01.68,10.43,3.69,1.8,2.22,2.49,5.1,3.65,7.71,1.16,2.62,3.16,5.22,6,5.59,3.41.44,6.68-.52,10.08-1.05,3.4-.54,7.15-.44,9.92,1.6,6.08,4.48,5.39,13.87,3.57,20.29Z"/><path class="l" d="m547.73,80.56c-1.77,1.3-3.7,2.41-5.77,3.33-.01,0-.02.01-.03.01-3.9,1.72-8.3,2.09-12.52,1.6-4.23-.5-8.31-1.84-12.26-3.43-7.12-2.86-14.27-6.95-17.92-13.69-2.05-3.79-2.84-8.18-2.68-12.48.13-3.67.94-7.28,2.1-10.77.14,10.95,5.04,21.88,13.52,28.87,9.72,7.99,23.62,10.37,35.57,6.56Z"/></g></g></g></g></g></svg>