<?xml version="1.0" encoding="UTF-8"?><svg id="a" xmlns="http://www.w3.org/2000/svg" width="640" height="120" viewBox="0 0 640 120"><defs><style>.f{fill:#fff;}.g{fill:#e6f5ff;}.h{stroke:#abedfc;stroke-width:2px;}.h,.i{fill:none;stroke-miterlimit:10;}.j{fill:#172752;}.i{stroke:#172752;stroke-width:3px;}.k{fill:#bae4ff;}</style></defs><g id="b"><g id="c"><path class="i" d="m271.87,67.18c2.11-.4,4.26-.63,6.29-.77,40.21-2.7,80.42-5.39,120.63-8.09,30.99-2.08,63.2-3.98,92.04,7.56,17.01,6.81,32.79,17.14,50.88,20.02,47.15,7.5,84.6-13.86,104.03-76.26"/><path class="i" d="m268.3,50.67c30.92-2.67,61.77-2.44,92.5,3.4,8.01,1.52,17.91,5.93,17.18,14.05-.16,1.76-.8,3.29-1.77,4.63"/><g><g><path class="f" d="m375.31,41.66c1.06,8.47-1.2,17.23-5.9,24.35-4.52,6.83-11.32,12.45-13.45,20.35-1.04,3.85-.87,7.92-1.55,11.84-.03.27-.09.52-.14.79-.85,4.17-3.34,8.5-7.47,9.47-2.8.65-5.77-.41-8.06-2.14-2.28-1.74-4-4.09-5.69-6.42-1.91-2.63-3.62-5.03-5.39-7.5-2.33-3.23-7.07-3.45-9.67-.43-.39.45-.75.92-1.06,1.42-1.77,2.74-2.66,5.96-4.09,8.9-2.01,4.14-5.55,8.1-11.1,6.64-2.07-.55-3.89-1.8-5.29-3.41-3.93-4.55-4.57-10.52-6.65-15.9-3.21-8.32-9.69-14.93-14.2-22.63-.19-.33-.38-.66-.56-1-3.57-6.39-5.79-13.6-5.8-20.91-.03-7.7,2.48-15.49,7.51-21.3,5.04-5.82,12.68-9.47,20.36-9.1.66.04,1.31.09,1.95.19,5.87.77,11.36,3.57,16.59,6.44,4.59,2.51,9.61,0,14.7-2.63,0,0,0,0,0,0,2.81-1.44,5.63-2.93,8.41-3.65,8.26-2.14,17.4-.12,24.22,5,6.82,5.12,11.26,13.18,12.32,21.63Z"/><g><path class="g" d="m354.41,98.21c-.03.27-.09.52-.14.79-.85,4.17-3.34,8.5-7.47,9.47-2.8.65-5.77-.41-8.06-2.14-2.28-1.74-4-4.09-5.69-6.42-1.91-2.63-3.62-5.03-5.39-7.5-2.33-3.23-7.07-3.45-9.67-.43-.39.45-.75.92-1.06,1.42-1.77,2.74-2.66,5.96-4.09,8.9-2.01,4.14-5.55,8.1-11.1,6.64-2.07-.55-3.89-1.8-5.29-3.41-3.93-4.55-4.57-10.52-6.65-15.9-3.21-8.32-9.69-14.93-14.2-22.63-.19-.33-.38-.66-.56-1,4.07,1.95,7.7,4.86,10.93,8.04,4.36,4.29,8.15,9.14,12.45,13.5,2.33,2.37,5.09,4.71,8.4,4.92,5.96.37,10.1-6.07,15.84-7.67,4.8-1.33,9.88.96,13.93,3.87,4.06,2.91,7.7,6.53,12.3,8.44,1.72.72,3.64,1.11,5.53,1.1Z"/><path class="g" d="m337.6,20.15c.22,1.02-.72,1.88-1.59,2.43-4.61,2.88-10.31,3.73-15.68,2.95-5.38-.79-10.44-3.11-14.97-6.12-2.06-1.37-4.13-3.06-6.3-4.52,5.87.77,11.36,3.57,16.59,6.44,4.59,2.51,9.61,0,14.7-2.63,0,0,0,0,0,0,1.19.21,2.38.27,3.59.18.71-.05,1.43-.16,2.11-.02.7.14,1.38.61,1.54,1.3Z"/></g><path class="k" d="m316.27,21.57c1.54,1.12,3.34,1.7,5.15,1.99,1.82.28,3.68.25,5.54.14,1.87-.1,3.76-.29,5.68-.26,1.91.02,3.86.28,5.62,1.02-3.75-.71-7.43,0-11.24.24-1.9.1-3.86.09-5.75-.37-1.88-.44-3.71-1.34-5-2.75Z"/></g><path class="j" d="m304.44,51.6c-1.97,1.32-4.63.8-5.95-1.17-1.32-1.97-.8-4.63,1.17-5.95,1.97-1.32,4.63-.8,5.95,1.17s.8,4.63-1.17,5.95Z"/><path class="j" d="m337.65,47.54c-1.97,1.32-4.63.8-5.95-1.17-1.32-1.97-.8-4.63,1.17-5.95s4.63-.8,5.95,1.17.8,4.63-1.17,5.95Z"/><path class="j" d="m311.19,51.18c3.75,2.94,9.47,4.64,13.02.52.82-.79,1.49-1.81,2.18-2.71.16-.25.51-.33.75-.14.19.15.24.41.13.61-.37.74-.77,1.48-1.19,2.21-1.53,2.21-3.6,3.96-6.41,4.23-1.8.2-3.58-.24-5.12-.99-1.54-.77-2.91-1.74-4.06-3.02-.19-.21-.17-.52.04-.71.19-.17.47-.17.66-.01h0Z"/></g><g><g><path class="f" d="m554.33,66.31c-2.46,8.17-8.08,15.27-15.26,19.87-6.9,4.41-15.39,6.8-20.54,13.16-2.51,3.1-4,6.89-6.21,10.2-.14.23-.29.44-.45.66-2.47,3.47-6.5,6.42-10.67,5.63-2.82-.54-5.11-2.71-6.5-5.22-1.38-2.51-2-5.36-2.6-8.17-.68-3.18-1.27-6.06-1.89-9.04-.82-3.9-5.07-6.02-8.67-4.31-.54.25-1.06.54-1.55.87-2.73,1.79-4.85,4.37-7.35,6.48-3.51,2.97-8.36,5.16-12.84,1.57-1.67-1.34-2.83-3.22-3.45-5.26-1.75-5.75.08-11.47.36-17.23.44-8.91-2.81-17.57-3.82-26.44-.04-.38-.08-.76-.11-1.14-.67-7.29.22-14.78,3.17-21.47,3.09-7.05,8.54-13.16,15.5-16.43,6.97-3.28,15.43-3.52,22.3-.07.59.3,1.16.61,1.71.96,5.06,3.08,8.94,7.87,12.56,12.61,3.18,4.15,8.78,3.9,14.51,3.55,0,.01.01,0,.01,0,3.15-.18,6.33-.4,9.17.07,8.42,1.39,15.96,6.94,20.12,14.38,4.16,7.44,4.96,16.61,2.5,24.77Z"/><g><path class="g" d="m512.32,109.54c-.14.23-.29.44-.45.66-2.47,3.47-6.5,6.42-10.67,5.63-2.82-.54-5.11-2.71-6.5-5.22-1.38-2.51-2-5.36-2.6-8.17-.68-3.18-1.27-6.06-1.89-9.04-.82-3.9-5.07-6.02-8.67-4.31-.54.25-1.06.54-1.55.87-2.73,1.79-4.85,4.37-7.35,6.48-3.51,2.97-8.36,5.16-12.84,1.57-1.67-1.34-2.83-3.22-3.45-5.26-1.75-5.75.08-11.47.36-17.23.44-8.91-2.81-17.57-3.82-26.44-.04-.38-.08-.76-.11-1.14,2.93,3.43,5.07,7.56,6.74,11.78,2.25,5.69,3.75,11.66,5.91,17.39,1.17,3.11,2.74,6.37,5.69,7.9,5.3,2.75,11.69-1.46,17.59-.6,4.93.73,8.64,4.88,11.17,9.18,2.53,4.3,4.39,9.09,7.83,12.7,1.28,1.35,2.88,2.49,4.61,3.25Z"/><path class="g" d="m528.57,31.36c-.21,1.02-1.42,1.43-2.44,1.58-5.38.77-10.94-.77-15.53-3.66-4.6-2.9-8.29-7.07-11.21-11.66-1.33-2.09-2.54-4.47-3.93-6.69,5.06,3.08,8.94,7.87,12.56,12.61,3.18,4.15,8.78,3.9,14.51,3.55,0,.01.01,0,.01,0,1,.67,2.07,1.21,3.21,1.62.67.24,1.37.43,1.94.84.58.41,1.01,1.12.88,1.81Z"/></g><path class="k" d="m508.5,24.02c.96,1.65,2.37,2.9,3.9,3.91,1.55,1,3.26,1.72,5.01,2.37,1.75.67,3.55,1.26,5.29,2.07,1.74.79,3.42,1.82,4.72,3.21-3.14-2.17-6.8-3.01-10.37-4.34-1.78-.68-3.56-1.48-5.11-2.67-1.54-1.16-2.85-2.73-3.45-4.54Z"/></g><path class="j" d="m494.42,47.5c1.27,4.63,4.76,9.36,10.12,8.21,1.13-.14,2.28-.55,3.37-.87.28-.11.61.04.68.34.06.23-.05.47-.26.57-.74.37-1.5.73-2.28,1.06-2.55.85-5.26,1.02-7.67-.45-1.56-.92-2.73-2.34-3.51-3.86-.78-1.54-1.29-3.14-1.45-4.85-.03-.28.18-.52.45-.54.25-.02.48.15.54.39h0Z"/><path class="j" d="m490.64,39.8c-.68-1.33-1.77-2.47-3.1-3.23-1.33-.73-2.88-1.08-4.36-.96-1.55.11-3.01.65-4.1,1.54,0,0,0,0,0,0-.35.28-.47.77-.29,1.18.11.25.3.44.55.53.25.1.52.09.78-.02,1-.43,2.08-.64,3.11-.61,1.1.05,2.11.32,2.93.8.83.45,1.59,1.17,2.2,2.08.57.86.95,1.89,1.1,2.98.06.44.42.8.86.86.05,0,.09,0,.13,0,.49,0,.93-.37.99-.87.19-1.4-.1-2.93-.82-4.3Z"/><path class="j" d="m523.49,55.08c-.68-1.33-1.77-2.47-3.1-3.23-1.33-.73-2.88-1.08-4.36-.96-1.55.11-3.01.65-4.1,1.54,0,0,0,0,0,0-.35.28-.47.77-.29,1.18.11.25.3.44.55.53.25.1.52.09.78-.02,1-.43,2.08-.65,3.11-.61,1.1.05,2.11.32,2.93.8.83.45,1.59,1.17,2.2,2.08.57.86.95,1.89,1.1,2.98.06.44.42.8.86.86.05,0,.09,0,.13,0,.49,0,.93-.37.99-.87.19-1.4-.1-2.93-.82-4.3Z"/></g><g><g><path class="f" d="m189.71,27.35c3.66,7.71,4.26,16.74,2.02,24.97-2.16,7.9-6.85,15.37-6.4,23.54.22,3.98,1.66,7.79,2.24,11.73.05.26.08.52.11.79.5,4.23-.51,9.12-4.13,11.33-2.45,1.49-5.61,1.42-8.32.49-2.71-.93-5.08-2.63-7.41-4.31-2.64-1.9-5.01-3.64-7.47-5.43-3.23-2.34-7.8-1.06-9.32,2.62-.23.55-.42,1.11-.57,1.69-.82,3.16-.66,6.49-1.1,9.74-.61,4.56-2.74,9.44-8.47,9.78-2.14.13-4.26-.49-6.09-1.58-5.16-3.09-7.64-8.56-11.3-13.02-5.65-6.9-13.87-11.14-20.57-17.04-.28-.25-.57-.51-.85-.77-5.39-4.96-9.76-11.11-12.06-18.05-2.44-7.3-2.5-15.49.47-22.58,2.97-7.11,9.08-12.96,16.49-15.02.64-.17,1.27-.33,1.91-.44,5.82-1.11,11.91-.16,17.77.92,5.14.94,9.13-3,13.14-7.1,0,0,0,0,0,0,2.21-2.25,4.42-4.54,6.85-6.1,7.18-4.62,16.49-5.56,24.57-2.84,8.08,2.72,14.82,8.99,18.48,16.69Z"/><g><path class="g" d="m187.58,87.59c.05.26.08.52.11.79.5,4.23-.51,9.12-4.13,11.33-2.45,1.49-5.61,1.42-8.32.49-2.71-.93-5.08-2.63-7.41-4.31-2.64-1.9-5.01-3.64-7.47-5.43-3.23-2.34-7.8-1.06-9.32,2.62-.23.55-.42,1.11-.57,1.69-.82,3.16-.66,6.49-1.1,9.74-.61,4.56-2.74,9.44-8.47,9.78-2.14.13-4.26-.49-6.09-1.58-5.16-3.09-7.64-8.56-11.3-13.02-5.65-6.9-13.87-11.14-20.57-17.04-.28-.25-.57-.51-.85-.77,4.47.58,8.83,2.2,12.9,4.21,5.49,2.71,10.6,6.13,16.05,8.93,2.95,1.52,6.31,2.88,9.52,2.04,5.77-1.52,7.69-8.93,12.64-12.25,4.15-2.77,9.68-2.18,14.44-.69,4.76,1.49,9.35,3.79,14.33,4.16,1.85.14,3.81-.09,5.6-.68Z"/><path class="g" d="m147.16,18.72c.53.9-.09,2.01-.75,2.81-3.47,4.18-8.63,6.77-13.97,7.71-5.36.94-10.89.32-16.14-1.12-2.39-.66-4.88-1.61-7.4-2.32,5.82-1.11,11.91-.16,17.77.92,5.14.94,9.13-3,13.14-7.1,0,0,0,0,0,0,1.19-.17,2.35-.49,3.47-.95.66-.27,1.3-.6,2-.68.71-.09,1.5.15,1.87.75Z"/></g><path class="k" d="m127.35,26.75c1.82.58,3.7.56,5.51.28,1.82-.3,3.57-.91,5.31-1.61,1.74-.68,3.48-1.45,5.31-2.02,1.82-.58,3.75-.94,5.65-.79-3.79.5-7.06,2.33-10.6,3.74-1.77.69-3.64,1.29-5.58,1.45-1.92.18-3.95-.11-5.61-1.05Z"/></g><g><path class="j" d="m117.48,55.58c4.23,3.13,9.71.63,9.96-4.66-.01-.53.78-.69.98-.21,1.31,2.99-.38,6.74-3.35,8.12-2.95,1.41-6.95.31-8.38-2.64-.24-.47.39-.96.78-.62h0Z"/><path class="j" d="m147.1,42.24c4.23,3.13,9.71.63,9.96-4.66-.01-.53.78-.69.98-.21,1.31,2.99-.38,6.74-3.35,8.12-2.95,1.41-6.95.31-8.38-2.64-.24-.47.39-.96.78-.62h0Z"/><path class="j" d="m136.27,51.5c-1.09.19-2.16.86-2.52,1.9-.32.91-.04,1.95.55,2.71.59.76,1.45,1.27,2.34,1.61,2.39.92,5.26.73,7.33-.78,2.06-1.52,3.1-4.43,2.15-6.81-.27-.68-.72-1.33-1.41-1.58-.98-.35-2.04.24-2.81.93-.73.65-1.56,1.72-2.53,2.01-.95.29-2.09-.16-3.1.02Z"/></g></g><path class="i" d="m376.21,72.75c-2.66,3.66-7.8,5.88-12.39,7.3-26.35,8.14-47.5,12.62-75.07,13-8.64.12-30.13,1.16-31.32-12.96-.72-8.52,8.11-11.73,14.45-12.92"/><path class="i" d="m-22.96,64.32c27.54,35.45,68.94,40.5,103.86,28.94,64.96-21.5,117-45.23,187.4-42.59"/></g><g id="d"><path class="h" d="m-23.41,39.07c4.83,3.44,10.94,4.57,16.86,4.85,17.01.82,34.25-4.85,47.45-15.6,13.2-10.75,22.25-26.48,24.9-43.3"/><path class="h" d="m-20.92,58.46c22.68,5.92,47.66-1.78,65.42-17.07,17.76-15.29,28.79-37.36,33.9-60.23"/><path class="h" d="m567.55,127.69c17.41-31.93,49.76-55.3,85.55-61.81"/><path class="h" d="m580.7,123.99c16.2-20.18,38.59-35.32,63.35-42.83"/></g><g id="e"><path class="g" d="m73.6,58.75c0-.16-1.87-.2-4.87-.14-2.81.06-5.61-.76-7.8-2.49-.4-.31-.77-.65-1.13-1-1.99-1.97-3.13-4.63-3.39-7.41-.28-2.97-.53-4.8-.69-4.79-.16,0-.21,1.85-.14,4.83.06,2.79-.77,5.56-2.52,7.74-.31.39-.65.77-1.01,1.12-1.99,1.97-4.67,3.11-7.47,3.37-2.99.28-4.83.53-4.82.69,0,.16,1.87.2,4.87.14,2.81-.06,5.61.76,7.8,2.49.4.31.77.65,1.13,1,1.99,1.97,3.13,4.63,3.39,7.41.28,2.97.53,4.8.69,4.79.16,0,.21-1.85.14-4.83-.06-2.79.77-5.56,2.52-7.75.31-.39.65-.77,1.01-1.12,1.99-1.97,4.67-3.11,7.47-3.37,2.99-.28,4.83-.53,4.82-.69Z"/><path class="g" d="m77.22,38.63c0-.09-1.02-.11-2.66-.08-1.53.03-3.06-.42-4.26-1.36-.22-.17-.42-.35-.62-.55-1.09-1.08-1.71-2.53-1.85-4.05-.15-1.62-.29-2.62-.38-2.61-.09,0-.11,1.01-.08,2.64.03,1.52-.42,3.04-1.38,4.23-.17.21-.36.42-.55.61-1.09,1.08-2.55,1.7-4.08,1.84-1.63.15-2.64.29-2.64.38,0,.09,1.02.11,2.66.08,1.53-.03,3.06.42,4.26,1.36.22.17.42.35.62.55,1.09,1.08,1.71,2.53,1.85,4.05.15,1.62.29,2.62.38,2.61.09,0,.11-1.01.08-2.64-.03-1.52.42-3.04,1.38-4.23.17-.21.36-.42.55-.61,1.09-1.08,2.55-1.7,4.08-1.84,1.63-.15,2.64-.29,2.64-.38Z"/><path class="g" d="m442.01,92.73c0-.09-1.02-.11-2.66-.08-1.53.03-3.06-.42-4.26-1.36-.22-.17-.42-.35-.62-.55-1.09-1.08-1.71-2.53-1.85-4.05-.15-1.62-.29-2.62-.38-2.61-.09,0-.11,1.01-.08,2.64.03,1.52-.42,3.04-1.38,4.23-.17.21-.36.42-.55.61-1.09,1.08-2.55,1.7-4.08,1.84-1.63.15-2.64.29-2.64.38,0,.09,1.02.11,2.66.08,1.53-.03,3.06.42,4.26,1.36.22.17.42.35.62.55,1.09,1.08,1.71,2.53,1.85,4.05.15,1.62.29,2.62.38,2.61.09,0,.11-1.01.08-2.64-.03-1.52.42-3.04,1.38-4.23.17-.21.36-.42.55-.61,1.09-1.08,2.55-1.7,4.08-1.84,1.63-.15,2.64-.29,2.64-.38Z"/><path class="g" d="m413.52,37.87c0-.09-1.02-.11-2.66-.08-1.53.03-3.06-.42-4.26-1.36-.22-.17-.42-.35-.62-.55-1.09-1.08-1.71-2.53-1.85-4.05-.15-1.62-.29-2.62-.38-2.61-.09,0-.11,1.01-.08,2.64.03,1.52-.42,3.04-1.38,4.23-.17.21-.36.42-.55.61-1.09,1.08-2.55,1.7-4.08,1.84-1.63.15-2.64.29-2.64.38,0,.09,1.02.11,2.66.08,1.53-.03,3.06.42,4.26,1.36.22.17.42.35.62.55,1.09,1.08,1.71,2.53,1.85,4.05.15,1.62.29,2.62.38,2.61.09,0,.11-1.01.08-2.64-.03-1.52.42-3.04,1.38-4.23.17-.21.36-.42.55-.61,1.09-1.08,2.55-1.7,4.08-1.84,1.63-.15,2.64-.29,2.64-.38Z"/><path class="g" d="m571.26,33.6c0-.09-1.02-.11-2.66-.08-1.53.03-3.06-.42-4.26-1.36-.22-.17-.42-.35-.62-.55-1.09-1.08-1.71-2.53-1.85-4.05-.15-1.62-.29-2.62-.38-2.61-.09,0-.11,1.01-.08,2.64.03,1.52-.42,3.04-1.38,4.23-.17.21-.36.42-.55.61-1.09,1.08-2.55,1.7-4.08,1.84-1.63.15-2.64.29-2.64.38,0,.09,1.02.11,2.66.08,1.53-.03,3.06.42,4.26,1.36.22.17.42.35.62.55,1.09,1.08,1.71,2.53,1.85,4.05.15,1.62.29,2.62.38,2.61.09,0,.11-1.01.08-2.64-.03-1.52.42-3.04,1.38-4.23.17-.21.36-.42.55-.61,1.09-1.08,2.55-1.7,4.08-1.84,1.63-.15,2.64-.29,2.64-.38Z"/><path class="g" d="m230.86,99.04c0-.12-1.4-.15-3.64-.1-2.1.04-4.19-.57-5.84-1.87-.3-.23-.58-.48-.84-.75-1.49-1.47-2.34-3.47-2.53-5.54-.21-2.22-.4-3.59-.52-3.58-.12,0-.15,1.39-.11,3.62.04,2.08-.58,4.16-1.89,5.79-.24.29-.49.57-.75.84-1.49,1.48-3.5,2.32-5.59,2.52-2.24.21-3.62.4-3.61.52,0,.12,1.4.15,3.64.1,2.1-.04,4.19.57,5.84,1.87.3.23.58.48.84.75,1.49,1.47,2.34,3.47,2.53,5.54.21,2.22.4,3.59.52,3.58.12,0,.15-1.39.11-3.62-.04-2.08.58-4.16,1.89-5.79.24-.29.49-.57.75-.84,1.49-1.48,3.5-2.32,5.59-2.52,2.24-.21,3.62-.4,3.61-.52Z"/><path class="g" d="m395.02,19.01c0-.12-1.4-.15-3.64-.1-2.1.04-4.19-.57-5.84-1.87-.3-.23-.58-.48-.84-.75-1.49-1.47-2.34-3.47-2.53-5.54-.21-2.22-.4-3.59-.52-3.58-.12,0-.15,1.39-.11,3.62.04,2.08-.58,4.16-1.89,5.79-.24.29-.49.57-.75.84-1.49,1.48-3.5,2.32-5.59,2.52-2.24.21-3.62.4-3.61.52,0,.12,1.4.15,3.64.1,2.1-.04,4.19.57,5.84,1.87.3.23.58.48.84.75,1.49,1.47,2.34,3.47,2.53,5.54.21,2.22.4,3.59.52,3.58.12,0,.15-1.39.11-3.62-.04-2.08.58-4.16,1.89-5.79.24-.29.49-.57.75-.84,1.49-1.48,3.5-2.32,5.59-2.52,2.24-.21,3.62-.4,3.61-.52Z"/><path class="g" d="m211.06,86.69c0-.09-.99-.11-2.59-.07-1.5.03-2.98-.4-4.15-1.33-.21-.17-.41-.34-.6-.53-1.06-1.05-1.66-2.47-1.8-3.94-.15-1.58-.28-2.55-.37-2.55-.09,0-.11.99-.08,2.57.03,1.48-.41,2.96-1.34,4.12-.17.21-.35.41-.54.6-1.06,1.05-2.49,1.65-3.98,1.79-1.59.15-2.57.28-2.57.37,0,.09.99.11,2.59.07,1.5-.03,2.98.4,4.15,1.33.21.17.41.34.6.53,1.06,1.05,1.66,2.47,1.8,3.94.15,1.58.28,2.55.37,2.55.09,0,.11-.99.08-2.57-.03-1.48.41-2.96,1.34-4.12.17-.21.35-.41.54-.6,1.06-1.05,2.49-1.65,3.98-1.79,1.59-.15,2.57-.28,2.57-.37Z"/></g></g></svg>